<?xml version="1.0" encoding="UTF-8" standalone="no"?>
<!DOCTYPE svg PUBLIC "-//W3C//DTD SVG 1.1//EN" "http://www.w3.org/Graphics/SVG/1.1/DTD/svg11.dtd">
<!-- Created with Vectornator (http://vectornator.io/) -->
<svg height="100%" stroke-miterlimit="10" style="fill-rule:nonzero;clip-rule:evenodd;stroke-linecap:round;stroke-linejoin:round;" version="1.1" viewBox="0 0 1024 1024" width="100%" xml:space="preserve" xmlns="http://www.w3.org/2000/svg" xmlns:xlink="http://www.w3.org/1999/xlink">
<defs>
<clipPath id="TextBounds">
<rect height="66.5802" transform="matrix(0.995983 -0.0895479 0.0895479 0.995983 464.897 501.894)" width="61.299" x="0" y="0"/>
</clipPath>
<clipPath id="TextBounds_2">
<rect height="70" transform="matrix(0.995404 0.0957659 -0.0957659 0.995404 496.18 498.801)" width="63.214" x="0" y="0"/>
</clipPath>
</defs>
<g id="圖層3">
<path d="M31.6722 566.642L271.836 150.666L752.164 150.666L992.328 566.642L752.164 982.618L271.836 982.618L31.6722 566.642Z" fill="#fffafa" fill-rule="nonzero" opacity="1" stroke="#4984c8" stroke-linecap="butt" stroke-linejoin="round" stroke-width="30"/>
<path d="M319.76 84.8964C277.895 84.1835 258.107 125.704 258.107 207.678C258.107 299.444 303.299 446.382 350.139 491.038C321.373 512.239 297.511 538.817 280.172 568.854C279.996 569.153 279.822 569.451 279.647 569.751C277.568 573.388 275.6 577.05 273.713 580.783C259.098 608.914 250.07 639.893 248.866 672.352C248.84 672.816 248.797 673.279 248.774 673.743C248.714 675.718 248.496 677.661 248.496 679.646C248.496 680.527 248.547 681.394 248.557 682.272C248.545 683.243 248.496 684.205 248.496 685.177C248.496 816.259 360.587 908.027 509.542 908.027C510.403 908.027 511.249 907.972 512.107 907.965C512.966 907.972 513.812 908.027 514.673 908.027C663.628 908.027 775.75 816.259 775.75 685.177C775.75 684.247 775.7 683.325 775.688 682.396C775.7 681.477 775.75 680.568 775.75 679.646C775.75 677.39 775.487 675.182 775.41 672.939C774.3 640.402 765.315 609.331 750.718 581.123C749.381 578.467 747.919 575.882 746.484 573.274C745.875 572.165 745.319 571.035 744.692 569.936C744.346 569.345 743.991 568.763 743.641 568.175C725.562 537.087 700.518 509.706 670.244 488.226C716.079 440.551 759.495 297.633 759.495 207.678C759.495 125.704 739.707 84.1835 697.841 84.8964C660.591 85.5307 622.544 136.455 601.266 187.9C562.644 281.278 562.696 426.715 561.77 443.013C556.096 442.003 550.369 441.172 544.557 440.51C544.494 440.503 544.434 440.486 544.371 440.479C544.331 440.474 544.288 440.483 544.248 440.479C533.868 439.309 523.312 438.625 512.54 438.625C512.395 438.625 512.253 438.624 512.107 438.625C511.972 438.624 511.841 438.625 511.706 438.625C500.947 438.625 490.395 439.312 480.029 440.479C479.865 440.497 479.699 440.491 479.535 440.51C471.517 441.427 463.613 442.674 455.862 444.249C454.905 430.392 455.336 282.193 416.336 187.9C395.058 136.455 357.011 85.5307 319.76 84.8964Z" fill="#1ec0ff" fill-rule="nonzero" opacity="1" stroke="#a3daff" stroke-linecap="butt" stroke-linejoin="round" stroke-width="30"/>
<path d="M356.128 766.568C356.128 755.695 370.569 746.88 388.383 746.88C406.197 746.88 420.637 755.695 420.637 766.568C420.637 777.441 406.197 786.256 388.383 786.256C370.569 786.256 356.128 777.441 356.128 766.568Z" fill="#fffafa" fill-rule="nonzero" opacity="1" stroke="none"/>
<path d="M600.129 766.568C600.129 755.695 614.57 746.88 632.384 746.88C650.198 746.88 664.639 755.695 664.639 766.568C664.639 777.441 650.198 786.256 632.384 786.256C614.57 786.256 600.129 777.441 600.129 766.568Z" fill="#fffafa" fill-rule="nonzero" opacity="1" stroke="none"/>
<g opacity="1">
<path clip-path="url(#TextBounds)" d="M509.537 502.017L482.047 504.488L482.645 511.132L492.266 510.267L494.882 539.359L503.128 538.618L500.513 509.525L510.134 508.66L509.537 502.017Z" fill="#fffafa" opacity="1" stroke="none"/>
<path clip-path="url(#TextBounds_2)" d="M516.006 504.847L512.57 540.562L520.583 541.333L521.671 530.023L524.51 530.296C532.66 531.08 538.8 527.789 539.645 518.998C540.416 510.985 536.199 506.79 527.728 505.975L516.006 504.847ZM522.244 524.071L523.446 511.57L526.743 511.888C529.673 512.17 531.545 514.337 531.13 518.641C530.708 523.036 528.471 524.67 525.54 524.388L522.244 524.071Z" fill="#fffafa" opacity="1" stroke="none"/>
</g>
</g>
</svg>
